Coordinates
version=1
nRows=29
nColumns=22
inDegrees=yes

Units are S.I. units (second, meters, Newtons, ...)
If the header above contains a line with 'inDegrees', this indicates whether rotational values are in degrees (yes) or radians (no).

endheader
time	pelvis_tilt	pelvis_list	pelvis_rotation	pelvis_tx	pelvis_ty	pelvis_tz	hip_flexion_r	hip_adduction_r	hip_rotation_r	knee_angle_r	ankle_angle_r	subtalar_angle_r	hip_flexion_l	hip_adduction_l	hip_rotation_l	knee_angle_l	ankle_angle_l	subtalar_angle_l	lumbar_extension	lumbar_bending	lumbar_rotation
      1.52000000	     -4.97338633	     -0.57420767	    -14.55851167	     -0.98824508	      0.87067823	     -0.50299729	      7.16082356	      1.84602288	      8.88242377	    -22.22939738	     23.12574880	     -8.75856204	     27.80175894	    -11.39671290	     -3.13652883	    -58.21335052	     12.03178853	      8.40773799	     -4.68188760	      1.73593916	     13.26346513
      1.53000000	     -4.90783693	     -0.36813654	    -14.62916676	     -0.98490947	      0.87116138	     -0.50159187	      6.64215317	      1.60901606	      8.94346153	    -21.74145848	     23.15541261	     -8.81716893	     28.77613778	    -11.41737498	     -3.51348087	    -58.75238296	     12.03607238	      7.91750149	     -4.71954299	      1.49232654	     13.61588362
      1.54000000	     -4.86118671	     -0.16807373	    -14.73518616	     -0.98142214	      0.87165500	     -0.50012883	      6.10615909	      1.38123802	      9.03806066	    -21.19860161	     23.13300840	     -8.87418160	     29.66348057	    -11.50162541	     -3.99960707	    -58.93334848	     12.03508261	      7.38284559	     -4.72615797	      1.25134448	     13.98391389
      1.55000000	     -4.83107489	      0.01788401	    -14.86370965	     -0.97779343	      0.87212697	     -0.49866050	      5.55959424	      1.16535994	      9.14807080	    -20.62212716	     23.08204035	     -8.93289094	     30.46635979	    -11.63141679	     -4.53295014	    -58.77368567	     12.02774020	      6.74661551	     -4.71029649	      1.02474813	     14.39243396
      1.56000000	     -4.80976199	      0.18176930	    -15.01119985	     -0.97403441	      0.87254931	     -0.49719857	      4.99712750	      0.96783656	      9.27854197	    -20.02149344	     23.02676321	     -8.98101972	     31.18011556	    -11.80206695	     -5.08053139	    -58.29766180	     12.00363187	      6.06137307	     -4.68716924	      0.81932972	     14.84027793
      1.57000000	     -4.79695843	      0.32848079	    -15.13981774	     -0.97011846	      0.87289547	     -0.49580379	      4.41613870	      0.77631446	      9.37289018	    -19.39641413	     22.96739442	     -9.02446552	     31.81790374	    -11.97782873	     -5.58810357	    -57.52474656	     11.94994607	      5.26994780	     -4.65786527	      0.63397569	     15.23678227
      1.58000000	     -4.79258410	      0.44942260	    -15.24887233	     -0.96605386	      0.87313666	     -0.49451912	      3.82835140	      0.59845126	      9.42898937	    -18.77355164	     22.89882300	     -9.04904408	     32.38793485	    -12.14788620	     -6.01501676	    -56.48904147	     11.85447807	      4.45992786	     -4.62783291	      0.48271606	     15.62649685
      1.59000000	     -4.78214244	      0.53626831	    -15.35509286	     -0.96184512	      0.87326172	     -0.49330999	      3.21151393	      0.44454151	      9.49392786	    -18.14549583	     22.88074962	     -9.04802762	     32.87296332	    -12.32313363	     -6.36111586	    -55.21883089	     11.75211988	      3.73424151	     -4.61858407	      0.36771592	     16.01243508
      1.60000000	     -4.77396162	      0.59239218	    -15.43947641	     -0.95749199	      0.87325579	     -0.49222732	      2.58851438	      0.30837085	      9.50877506	    -17.53521759	     22.83192207	     -9.02681484	     33.29757285	    -12.48096354	     -6.58780009	    -53.74283630	     11.59618609	      3.08542735	     -4.62137347	      0.29024008	     16.38590302
      1.61000000	     -4.78034683	      0.62672328	    -15.48730497	     -0.95297950	      0.87305540	     -0.49129870	      1.96566360	      0.18565212	      9.48073741	    -16.93561136	     22.86560488	     -8.98684984	     33.69051629	    -12.60362775	     -6.67942896	    -52.09772314	     11.45140520	      2.49267707	     -4.61995901	      0.24546619	     16.69270226
      1.62000000	     -4.79053604	      0.63138264	    -15.53269166	     -0.94834052	      0.87270007	     -0.49046529	      1.34615103	      0.08755337	      9.43981731	    -16.36612229	     22.91070468	     -8.92811081	     34.03252760	    -12.71513972	     -6.65460344	    -50.30272210	     11.27532641	      2.04939569	     -4.63140074	      0.23494911	     17.00086814
      1.63000000	     -4.80480851	      0.61612733	    -15.57247966	     -0.94356562	      0.87218186	     -0.48974249	      0.73197139	      0.00249367	      9.39076333	    -15.82888238	     22.98624312	     -8.85354779	     34.33183291	    -12.80734001	     -6.52553474	    -48.38396148	     11.07717616	      1.73618702	     -4.65165104	      0.25082456	     17.29410199
      1.64000000	     -4.82843499	      0.58197736	    -15.60954471	     -0.93866510	      0.87150272	     -0.48909470	      0.13473996	     -0.06493251	      9.32487174	    -15.33283848	     23.06145008	     -8.77676447	     34.59969932	    -12.89086928	     -6.30620050	    -46.36719732	     10.83933450	      1.57731378	     -4.67277949	      0.28612449	     17.57701532
      1.65000000	     -4.85670304	      0.54062621	    -15.65006981	     -0.93363104	      0.87066909	     -0.48853037	     -0.45343384	     -0.13023161	      9.26745795	    -14.86682649	     23.18989547	     -8.68723262	     34.83029179	    -12.95992854	     -6.02301842	    -44.26910191	     10.59287481	      1.51981858	     -4.69627098	      0.33109416	     17.84943940
      1.66000000	     -4.88377612	      0.49356399	    -15.69649200	     -0.92847064	      0.86970268	     -0.48802085	     -1.02821142	     -0.19327141	      9.21912350	    -14.44983800	     23.35389412	     -8.58250072	     35.02046513	    -13.01902978	     -5.68612492	    -42.11276053	     10.34100699	      1.56793375	     -4.72763337	      0.37651486	     18.11013857
      1.67000000	     -4.92231490	      0.44585201	    -15.75324595	     -0.92320656	      0.86859583	     -0.48755808	     -1.56806158	     -0.25453130	      9.18873517	    -14.09058352	     23.54897075	     -8.46847007	     35.18891990	    -13.07386492	     -5.30544015	    -39.91980901	     10.09161288	      1.71468487	     -4.75197508	      0.41998521	     18.36030280
      1.68000000	     -4.95603830	      0.40225603	    -15.82488280	     -0.91782398	      0.86738680	     -0.48713186	     -2.08358082	     -0.32415416	      9.17289621	    -13.79970583	     23.78001747	     -8.33283145	     35.31566514	    -13.12446500	     -4.90237875	    -37.70609826	      9.87232825	      1.97061689	     -4.78603649	      0.45222233	     18.60267312
      1.69000000	     -5.02113872	      0.37428086	    -15.90661756	     -0.91231948	      0.86602440	     -0.48674783	     -2.54196095	     -0.40573403	      9.15604672	    -13.55851346	     24.03216094	     -8.21101396	     35.46072605	    -13.17555607	     -4.49411486	    -35.51530089	      9.65599329	      2.25678471	     -4.78033384	      0.47082646	     18.84886438
      1.70000000	     -5.08775606	      0.35439287	    -16.00826531	     -0.90671292	      0.86456232	     -0.48637440	     -2.95401308	     -0.49301325	      9.17109944	    -13.41197452	     24.33098600	     -8.08158560	     35.58541060	    -13.23635149	     -4.09594569	    -33.35630866	      9.50603835	      2.58824336	     -4.77504879	      0.47276032	     19.08495730
      1.71000000	     -5.15159295	      0.34945501	    -16.12576911	     -0.90098399	      0.86301416	     -0.48600608	     -3.32604949	     -0.59521237	      9.20123606	    -13.35542137	     24.66617922	     -7.93647914	     35.69422153	    -13.30571027	     -3.73947200	    -31.25586134	      9.41681185	      2.96643843	     -4.76867386	      0.44689887	     19.30757328
      1.72000000	     -5.21779283	      0.34918874	    -16.25873980	     -0.89515012	      0.86137587	     -0.48566911	     -3.65609040	     -0.70219073	      9.25845575	    -13.38541987	     25.02559377	     -7.76991646	     35.80914242	    -13.39806440	     -3.44615150	    -29.25342310	      9.39627748	      3.36722398	     -4.76381717	      0.41327457	     19.50900835
      1.73000000	     -5.30480329	      0.37240509	    -16.39222573	     -0.88919801	      0.85962101	     -0.48536274	     -3.92596283	     -0.82671883	      9.29682800	    -13.49277597	     25.42095593	     -7.66611909	     35.96822663	    -13.49454432	     -3.23094909	    -27.37809230	      9.35177275	      3.62816142	     -4.72765631	      0.34731991	     19.71578937
      1.74000000	     -5.36954200	      0.39980817	    -16.53797048	     -0.88311752	      0.85782756	     -0.48508604	     -4.18908700	     -0.96306579	      9.36034652	    -13.67533024	     25.82565044	     -7.53975726	     36.11776474	    -13.60954032	     -3.12938765	    -25.64439803	      9.34948220	      3.89938158	     -4.71838761	      0.26514843	     19.90000647
      1.75000000	     -5.42944607	      0.42075772	    -16.68153883	     -0.87692940	      0.85597401	     -0.48484997	     -4.43408356	     -1.09200486	      9.44150581	    -13.92858518	     26.23709558	     -7.43726998	     36.29791650	    -13.74803528	     -3.13441075	    -24.09049761	      9.30584913	      4.09348142	     -4.72271659	      0.18086199	     20.04360317
      1.76000000	     -5.46652754	      0.45150067	    -16.82603175	     -0.87055037	      0.85409554	     -0.48466392	     -4.70246599	     -1.24689250	      9.51036592	    -14.20391940	     26.63303656	     -7.31782621	     36.48055919	    -13.88802816	     -3.27083789	    -22.72299088	      9.26900597	      4.27302029	     -4.74429146	      0.07103386	     20.19427215
      1.77000000	     -5.48813260	      0.45698348	    -16.95579939	     -0.86401021	      0.85219932	     -0.48454323	     -4.99690608	     -1.38309600	      9.58365435	    -14.50556530	     27.00470805	     -7.21807390	     36.68854087	    -14.05120192	     -3.50010470	    -21.56999037	      9.17320999	      4.38286888	     -4.79327474	     -0.02037386	     20.28979710
      1.78000000	     -5.47699928	      0.47299730	    -17.08230158	     -0.85721434	      0.85032005	     -0.48449359	     -5.35589977	     -1.55727899	      9.62982734	    -14.77405632	     27.33810677	     -7.07702203	     36.87730457	    -14.19726076	     -3.83175196	    -20.60427335	      9.09239098	      4.48209107	     -4.86384296	     -0.13947355	     20.39084981
      1.79000000	     -5.44831054	      0.45569464	    -17.18746681	     -0.85019659	      0.84845854	     -0.48456025	     -5.77234529	     -1.71549184	      9.65870508	    -15.01813419	     27.61405750	     -6.92666523	     37.07129555	    -14.35257355	     -4.19669356	    -19.83778711	      8.99119129	      4.53816774	     -4.96453762	     -0.22320649	     20.44493255
      1.80000000	     -5.40156216	      0.41024532	    -17.27851061	     -0.84292355	      0.84663087	     -0.48471526	     -6.26080608	     -1.86692432	      9.66522829	    -15.20783813	     27.84053347	     -6.73986877	     37.24705096	    -14.51103045	     -4.55781781	    -19.23950849	      8.90550477	      4.57349552	     -5.08695155	     -0.28608740	     20.48362329
